<?xml version="1.0" encoding="utf-8"?>
<!-- Generator: Adobe Illustrator 16.0.0, SVG Export Plug-In . SVG Version: 6.00 Build 0)  -->
<!DOCTYPE svg PUBLIC "-//W3C//DTD SVG 1.1//EN" "http://www.w3.org/Graphics/SVG/1.1/DTD/svg11.dtd">
<svg version="1.1" id="Layer_2" xmlns="http://www.w3.org/2000/svg" xmlns:xlink="http://www.w3.org/1999/xlink" x="0px" y="0px"
	 width="500px" height="500px" viewBox="0 0 500 500" enable-background="new 0 0 500 500" xml:space="preserve">
<g>
	<g>
		<path fill="#58A1D4" d="M66.855,484.444c-2.921,0-5.857-0.979-8.285-2.984c-5.536-4.58-6.312-12.78-1.732-18.316l37.125-44.876
			c4.58-5.535,12.781-6.313,18.317-1.729c5.535,4.58,6.313,12.777,1.731,18.314l-37.124,44.876
			C74.314,482.837,70.598,484.444,66.855,484.444z"/>
	</g>
	<g>
		<path fill="#58A1D4" d="M170.892,484.444c-2.922,0-5.859-0.979-8.286-2.984c-5.536-4.58-6.312-12.78-1.731-18.316l37.124-44.876
			c4.578-5.535,12.779-6.313,18.315-1.729c5.537,4.58,6.313,12.777,1.731,18.314l-37.124,44.876
			C178.35,482.837,174.634,484.444,170.892,484.444z"/>
	</g>
	<g>
		<path fill="#58A1D4" d="M273.703,484.444c-2.92,0-5.857-0.981-8.285-2.986c-5.535-4.579-6.311-12.779-1.729-18.315l37.129-44.876
			c4.58-5.533,12.783-6.312,18.316-1.729c5.535,4.58,6.313,12.78,1.729,18.314l-37.131,44.878
			C281.162,482.837,277.447,484.444,273.703,484.444z"/>
	</g>
</g>
<g>
	<g>
		<path fill="#FFFFFF" d="M299.006,145.284c-46.083,0-83.574,37.488-83.574,83.568c0,46.078,37.491,83.566,83.574,83.566
			c46.079,0,83.567-37.488,83.567-83.566C382.573,182.772,345.085,145.284,299.006,145.284z"/>
		<g id="Layer_3_1_">
			<path fill="#FCE6B1" d="M299.396,312.847c-46.319,0-84.001-37.681-84.001-83.997c0-46.317,37.684-83.998,84.001-83.998
				c46.313,0,83.998,37.681,83.998,83.998C383.396,275.166,345.715,312.847,299.396,312.847z"/>
		</g>
		<path fill="#FEC10D" d="M299.006,124.169c-57.726,0-104.689,46.961-104.689,104.684c0,57.721,46.963,104.682,104.689,104.682
			c57.723,0,104.684-46.961,104.684-104.682C403.688,171.13,356.729,124.169,299.006,124.169z M299.006,312.419
			c-46.083,0-83.574-37.487-83.574-83.566c0-46.08,37.491-83.568,83.574-83.568c46.079,0,83.567,37.488,83.567,83.568
			C382.573,274.932,345.085,312.419,299.006,312.419z"/>
		<g>
			<path fill="#FEC10D" d="M488.839,239.407h-56.747c-5.831,0-10.558-4.727-10.558-10.558c0-5.83,4.727-10.558,10.558-10.558h56.747
				c5.831,0,10.559,4.728,10.559,10.558C499.396,234.681,494.67,239.407,488.839,239.407z"/>
		</g>
		<g>
			<path fill="#FEC10D" d="M166.701,239.407h-56.747c-5.831,0-10.558-4.727-10.558-10.558c0-5.83,4.727-10.558,10.558-10.558h56.747
				c5.831,0,10.557,4.728,10.557,10.558C177.258,234.681,172.532,239.407,166.701,239.407z"/>
		</g>
		<g>
			<path fill="#FEC10D" d="M299.396,106.711c-5.832,0-10.563-4.727-10.563-10.558V39.406c0-5.83,4.729-10.558,10.563-10.558
				c5.83,0,10.558,4.728,10.558,10.558v56.747C309.954,101.984,305.229,106.711,299.396,106.711z"/>
		</g>
		<g>
			<path fill="#FEC10D" d="M393.107,145.291c-2.702,0-5.403-1.031-7.465-3.093c-4.123-4.122-4.123-10.807,0-14.93l30.988-30.996
				c4.122-4.123,10.813-4.124,14.937-0.001c4.123,4.123,4.123,10.808,0,14.931l-30.994,30.996
				C398.512,144.26,395.811,145.291,393.107,145.291z"/>
		</g>
		<g>
			<path fill="#FEC10D" d="M424.511,364.925c-2.702,0-5.403-1.028-7.465-3.092l-31.805-31.807c-4.123-4.123-4.123-10.813,0-14.936
				c4.124-4.123,10.807-4.123,14.931,0l31.805,31.813c4.123,4.123,4.123,10.807,0,14.93
				C429.914,363.896,427.212,364.925,424.511,364.925z"/>
		</g>
		<g>
			<path fill="#FEC10D" d="M204.883,145.291c-2.702,0-5.404-1.031-7.465-3.093l-31.339-31.341c-4.123-4.123-4.123-10.808,0-14.93
				c4.123-4.123,10.808-4.123,14.931,0l31.338,31.341c4.123,4.123,4.123,10.808,0,14.93
				C210.287,144.26,207.585,145.291,204.883,145.291z"/>
		</g>
		<g>
			<path fill="#FEC10D" d="M173.54,364.921c-2.702,0-5.404-1.031-7.465-3.092c-4.123-4.123-4.123-10.813,0-14.938l31.807-31.805
				c4.123-4.121,10.808-4.121,14.93,0c4.123,4.123,4.123,10.813,0,14.938l-31.807,31.805
				C178.943,363.89,176.241,364.921,173.54,364.921z"/>
		</g>
	</g>
	<path fill="#CCCCCC" d="M304.016,373.118H72.86c-28.119,0-50.996-22.894-50.996-51.03c0-23.374,15.863-43.688,38.576-49.395
		c5.008-1.258,8.384-5.984,8.007-11.137c-0.177-2.414-0.344-4.695-0.344-6.896c0-49.358,40.16-89.514,89.522-89.514
		c30.521,0,58.645,15.375,75.227,41.129c2.688,4.173,7.902,5.934,12.573,4.234c4.984-1.814,10.076-2.734,15.136-2.734
		c24.35,0,44.15,19.805,44.15,44.146c0,2.354-0.232,4.871-0.714,7.692c-0.985,5.785,2.901,11.271,8.687,12.265
		c24.549,4.197,42.365,25.313,42.365,50.201C355.05,350.227,332.156,373.118,304.016,373.118z"/>
	<path fill="#808083" d="M325.787,253.273c0.011-0.45,0.016-0.897,0.016-1.347c0-36.064-29.344-65.41-65.41-65.41
		c-4.828,0-9.656,0.554-14.417,1.65c-20.889-27.869-53.415-44.28-88.512-44.28c-61.085,0-110.782,49.693-110.782,110.772
		c0,0.021,0,0.053,0,0.075C19.065,265.359,0.44,291.924,0.44,322.085c0,39.861,32.414,72.291,72.256,72.291h231.156
		c39.861,0,72.295-32.43,72.295-72.291C376.141,290.176,355.479,262.643,325.787,253.273z M303.848,373.12H72.691
		c-28.119,0-50.996-22.894-50.996-51.031c0-23.373,15.863-43.687,38.576-49.391c5.009-1.261,8.385-5.986,8.007-11.138
		c-0.177-2.416-0.344-4.697-0.344-6.896c0-49.356,40.16-89.514,89.522-89.514c30.522,0,58.645,15.376,75.227,41.13
		c2.688,4.175,7.906,5.934,12.573,4.234c4.984-1.814,10.076-2.734,15.135-2.734c24.346,0,44.151,19.805,44.151,44.145
		c0,2.357-0.233,4.875-0.714,7.695c-0.986,5.784,2.902,11.272,8.688,12.264c24.547,4.197,42.364,25.313,42.364,50.201
		C354.881,350.228,331.986,373.12,303.848,373.12z"/>
</g>
</svg>
