<?xml version="1.0" encoding="utf-8"?>
<!-- Generator: Adobe Illustrator 16.0.0, SVG Export Plug-In . SVG Version: 6.00 Build 0)  -->
<!DOCTYPE svg PUBLIC "-//W3C//DTD SVG 1.1//EN" "http://www.w3.org/Graphics/SVG/1.1/DTD/svg11.dtd">
<svg version="1.1" id="Layer_2" xmlns="http://www.w3.org/2000/svg" xmlns:xlink="http://www.w3.org/1999/xlink" x="0px" y="0px"
	 width="500px" height="500px" viewBox="0 0 500 500" enable-background="new 0 0 500 500" xml:space="preserve">
<g>
	<path fill="#FFEEB6" d="M245.422,129.271c0-8.072,0.622-16.105,1.856-24.033c-48.018,21.08-80.217,69.214-80.217,122.756
		c0,73.878,60.104,133.979,133.982,133.979c52.973,0,100.896-31.75,122.248-79.104c-7.469,1.093-15.031,1.645-22.628,1.645
		C315.063,284.512,245.422,214.871,245.422,129.271z"/>
	<path fill="#EAC618" d="M437.021,258.258c-11.777,3.313-24.013,4.993-36.355,4.993c-73.877,0-133.979-60.104-133.979-133.982
		c0-12.748,1.793-25.374,5.332-37.527l5.354-18.391l-18.438,5.187c-31.936,8.981-60.716,28.488-81.039,54.927
		c-20.994,27.311-32.09,59.998-32.09,94.527c0,85.601,69.64,155.242,155.24,155.242c34.279,0,66.773-10.952,93.979-31.676
		c26.316-20.047,45.882-48.49,55.084-80.098l5.354-18.393L437.021,258.258z M301.043,361.974
		c-73.877,0-133.98-60.104-133.98-133.979c0-53.542,32.199-101.676,80.215-122.755c-1.235,7.926-1.857,15.959-1.857,24.032
		c0,85.601,69.642,155.245,155.241,155.245c7.598,0,15.16-0.553,22.629-1.646C401.939,330.225,354.016,361.974,301.043,361.974z"/>
	<path fill="#E5E5E5" d="M250.158,347.109c-5.783-0.987-9.672-6.479-8.688-12.264c0.274-1.618,0.408-3.048,0.408-4.365
		c0-13.738-11.179-24.914-24.916-24.914c-2.845,0-5.72,0.521-8.546,1.549c-4.666,1.697-9.885-0.063-12.571-4.233
		c-10.067-15.64-27.145-24.978-45.677-24.978c-29.974,0-54.358,24.383-54.358,54.354c0,1.295,0.104,2.712,0.213,4.212
		c0.378,5.15-3,9.851-8.008,11.108c-13.078,3.286-22.211,14.979-22.211,28.432c0,16.201,13.17,29.382,29.359,29.382h149.996
		c16.2,0,29.383-13.181,29.383-29.382C274.541,361.68,264.285,349.526,250.158,347.109z"/>
	<path fill="#808083" d="M263.102,328.686c-0.947-24.632-21.282-44.379-46.142-44.379c-2.616,0-5.23,0.229-7.824,0.688
		c-14.288-17.883-35.807-28.35-58.969-28.35c-40.872,0-74.274,32.596-75.58,73.149c-18.045,8.002-30.044,25.948-30.044,46.214
		c0,27.924,22.708,50.645,50.619,50.645h149.995c27.925,0,50.644-22.721,50.644-50.645
		C295.801,354.585,282.512,335.979,263.102,328.686z M245.157,405.39H95.162c-16.189,0-29.359-13.181-29.359-29.382
		c0-13.454,9.133-25.146,22.209-28.433c5.007-1.259,8.382-5.98,8.007-11.13c-0.109-1.492-0.211-2.901-0.211-4.189
		c0-29.97,24.385-54.354,54.359-54.354c18.532,0,35.607,9.338,45.677,24.977c2.688,4.174,7.906,5.931,12.57,4.236
		c2.827-1.028,5.702-1.55,8.546-1.55c13.739,0,24.917,11.177,24.917,24.915c0,1.315-0.134,2.744-0.41,4.363
		c-0.985,5.784,2.903,11.272,8.686,12.265c14.13,2.418,24.388,14.569,24.388,28.896C274.541,392.209,261.359,405.39,245.157,405.39z
		"/>
</g>
</svg>
