<?xml version="1.0" encoding="utf-8"?>
<!-- Generator: Adobe Illustrator 16.0.0, SVG Export Plug-In . SVG Version: 6.00 Build 0)  -->
<!DOCTYPE svg PUBLIC "-//W3C//DTD SVG 1.1//EN" "http://www.w3.org/Graphics/SVG/1.1/DTD/svg11.dtd">
<svg version="1.1" id="Layer_2" xmlns="http://www.w3.org/2000/svg" xmlns:xlink="http://www.w3.org/1999/xlink" x="0px" y="0px"
	 width="500px" height="500px" viewBox="0 0 500 500" enable-background="new 0 0 500 500" xml:space="preserve">
<g>
	<path fill="#FFEEB6" d="M289.523,122.381c0-8.072,0.623-16.105,1.855-24.033c-48.018,21.08-80.217,69.214-80.217,122.756
		c0,73.878,60.104,133.98,133.98,133.98c52.974,0,100.896-31.75,122.248-79.104c-7.469,1.092-15.029,1.643-22.628,1.643
		C359.166,277.622,289.523,207.981,289.523,122.381z"/>
	<path fill="#EAC618" d="M481.122,251.369c-11.778,3.313-24.01,4.992-36.355,4.992c-73.878,0-133.979-60.104-133.979-133.982
		c0-12.748,1.794-25.374,5.333-37.527l5.354-18.391l-18.438,5.187C271.1,80.629,242.322,100.136,222,126.575
		c-20.993,27.311-32.09,59.998-32.09,94.527c0,85.602,69.64,155.243,155.236,155.243c34.279,0,66.776-10.952,93.979-31.673
		c26.318-20.047,45.88-48.493,55.083-80.1l5.355-18.391L481.122,251.369z M345.146,355.085
		c-73.877,0-133.979-60.104-133.979-133.983c0-53.542,32.198-101.676,80.215-122.755c-1.233,7.926-1.856,15.959-1.856,24.032
		c0,85.602,69.644,155.243,155.241,155.243c7.6,0,15.159-0.55,22.629-1.644C446.043,323.336,398.119,355.085,345.146,355.085z"/>
	<g id="Layer_3_1_">
		<path fill="#D6D6D8" d="M303.85,412.281H72.694c-28.119,0-50.996-22.895-50.996-51.03c0-23.374,15.863-43.687,38.576-49.394
			c5.008-1.261,8.384-5.985,8.007-11.139c-0.177-2.415-0.344-4.695-0.344-6.896c0-49.358,40.16-89.514,89.522-89.514
			c30.522,0,58.645,15.375,75.227,41.129c2.688,4.173,7.902,5.934,12.573,4.234c4.984-1.814,10.076-2.734,15.136-2.734
			c24.347,0,44.15,19.805,44.15,44.147c0,2.354-0.232,4.874-0.714,7.695c-0.985,5.785,2.901,11.271,8.687,12.263
			c24.549,4.199,42.365,25.313,42.365,50.203C354.884,389.39,331.99,412.281,303.85,412.281z"/>
	</g>
	<path fill="#808083" d="M325.789,292.436c0.011-0.451,0.016-0.897,0.016-1.347c0-36.065-29.344-65.407-65.41-65.407
		c-4.828,0-9.652,0.554-14.421,1.65c-20.889-27.869-53.414-44.28-88.512-44.28c-61.086,0-110.782,49.692-110.782,110.773
		c0,0.024,0,0.052,0,0.077C19.066,304.524,0.44,331.087,0.44,361.249c0,39.861,32.414,72.29,72.256,72.29H303.85
		c39.862,0,72.293-32.429,72.293-72.29C376.143,329.335,355.48,301.803,325.789,292.436z M303.85,412.279H72.693
		c-28.119,0-50.996-22.896-50.996-51.03c0-23.374,15.863-43.685,38.576-49.392c5.009-1.262,8.385-5.981,8.007-11.135
		c-0.177-2.417-0.344-4.697-0.344-6.897c0-49.358,40.159-89.514,89.522-89.514c30.523,0,58.645,15.376,75.227,41.13
		c2.688,4.175,7.905,5.932,12.573,4.234c4.984-1.814,10.076-2.734,15.135-2.734c24.348,0,44.151,19.805,44.151,44.147
		c0,2.355-0.233,4.874-0.714,7.695c-0.986,5.785,2.902,11.271,8.688,12.263c24.547,4.198,42.364,25.313,42.364,50.202
		C354.883,389.387,331.989,412.279,303.85,412.279z"/>
</g>
</svg>
