<?xml version="1.0" encoding="utf-8"?>
<!-- Generator: Adobe Illustrator 16.0.0, SVG Export Plug-In . SVG Version: 6.00 Build 0)  -->
<!DOCTYPE svg PUBLIC "-//W3C//DTD SVG 1.1//EN" "http://www.w3.org/Graphics/SVG/1.1/DTD/svg11.dtd">
<svg version="1.1" id="Layer_2" xmlns="http://www.w3.org/2000/svg" xmlns:xlink="http://www.w3.org/1999/xlink" x="0px" y="0px"
	 width="500px" height="500px" viewBox="0 0 500 500" enable-background="new 0 0 500 500" xml:space="preserve">
<g>
	<g>
		<g>
			<path fill="#58A1D4" d="M128.003,427.34c-2.921,0-5.858-0.979-8.285-2.983c-5.536-4.58-6.312-12.78-1.732-18.316l37.125-44.876
				c4.58-5.537,12.781-6.313,18.317-1.731c5.535,4.58,6.313,12.777,1.731,18.316l-37.124,44.876
				C135.462,425.732,131.746,427.34,128.003,427.34z"/>
		</g>
		<g>
			<path fill="#58A1D4" d="M232.04,427.34c-2.922,0-5.859-0.979-8.286-2.983c-5.536-4.58-6.312-12.78-1.732-18.316l37.125-44.876
				c4.578-5.537,12.779-6.313,18.315-1.731c5.537,4.58,6.313,12.777,1.731,18.316l-37.125,44.876
				C239.498,425.732,235.782,427.34,232.04,427.34z"/>
		</g>
		<g>
			<path fill="#58A1D4" d="M334.852,427.34c-2.92,0-5.856-0.98-8.285-2.986c-5.534-4.578-6.312-12.778-1.729-18.314l37.13-44.876
				c4.58-5.535,12.782-6.313,18.318-1.729c5.534,4.58,6.31,12.78,1.729,18.316l-37.132,44.876
				C342.311,425.732,338.595,427.34,334.852,427.34z"/>
		</g>
	</g>
	<path fill="#CCCCCC" d="M365.559,315.372H134.403c-28.119,0-50.996-22.894-50.996-51.03c0-23.374,15.863-43.687,38.576-49.394
		c5.008-1.259,8.384-5.985,8.007-11.137c-0.177-2.415-0.344-4.696-0.344-6.896c0-49.358,40.16-89.514,89.522-89.514
		c30.522,0,58.645,15.375,75.227,41.129c2.688,4.173,7.902,5.934,12.573,4.234c4.984-1.814,10.076-2.734,15.136-2.734
		c24.349,0,44.15,19.805,44.15,44.147c0,2.356-0.232,4.874-0.714,7.695c-0.985,5.785,2.901,11.273,8.687,12.263
		c24.549,4.199,42.365,25.313,42.365,50.203C416.593,292.48,393.699,315.372,365.559,315.372z"/>
	<path fill="#808083" d="M387.499,195.526c0.011-0.45,0.017-0.898,0.017-1.345c0-36.065-29.345-65.407-65.412-65.407
		c-4.828,0-9.649,0.553-14.422,1.649c-20.89-27.869-53.414-44.279-88.513-44.279c-61.085,0-110.782,49.692-110.782,110.773
		c0,0.025,0,0.051,0,0.076c-27.614,10.622-46.239,37.185-46.239,67.347c0,39.861,32.414,72.29,72.256,72.29h231.155
		c39.863,0,72.294-32.429,72.294-72.29C437.853,232.427,417.191,204.896,387.499,195.526z M365.559,315.371H134.403
		c-28.119,0-50.996-22.893-50.996-51.03c0-23.374,15.863-43.685,38.576-49.391c5.009-1.259,8.385-5.986,8.007-11.137
		c-0.177-2.415-0.344-4.696-0.344-6.896c0-49.358,40.16-89.514,89.522-89.514c30.522,0,58.645,15.375,75.227,41.129
		c2.688,4.174,7.902,5.935,12.573,4.234c4.984-1.813,10.076-2.733,15.136-2.733c24.349,0,44.15,19.805,44.15,44.147
		c0,2.356-0.232,4.873-0.714,7.695c-0.985,5.784,2.901,11.273,8.687,12.263c24.549,4.198,42.365,25.311,42.365,50.201
		C416.593,292.479,393.699,315.371,365.559,315.371z"/>
</g>
</svg>
